<svg width="32" height="32" viewBox="0 0 32 32" xmlns="http://www.w3.org/2000/svg">
  <rect width="32" height="32" rx="6" fill="#2A2A2A"/>
  <g transform="translate(2.5, 2.5) scale(0.574)">
    <path d="M21.9517 39.7438H24.7431V27.3076L33.7629 35.9316L35.6642 34.0325L27.0265 25.0216H39.3364C39.856 24.6301 39.7837 23.7353 39.7302 23.1039C39.7092 22.8685 39.7488 22.6262 39.6766 22.3955L39.3364 21.9737H27.0265L35.6642 12.9628L33.7629 11.0637L24.7431 19.6878V7.25622H21.9517V15.6333C21.4064 15.2838 21.1641 14.3703 20.8938 13.7738C20.048 11.9073 19.2954 9.96854 18.643 8.02752L15.8678 9.17861L18.9039 16.9032L12.9413 11.0708C12.601 11.5974 10.8209 12.7089 11.1495 13.3474L16.8745 19.1845L9.12926 15.9106L8.01081 18.5134L15.6046 21.9784H7.2279V25.0239H15.6046L8.01081 28.489L9.12926 31.0918L16.8745 27.8178L11.1495 33.655C10.8186 34.2935 12.601 35.4049 12.9413 35.9316L18.9039 30.0991L15.8678 37.8237L18.643 38.9748C19.2954 37.0315 20.048 35.0951 20.8938 33.2286C21.1641 32.632 21.4064 31.7162 21.9517 31.3691V39.7461V39.7438ZM0 23.5C0 10.5208 10.5227 0 23.5011 0C36.4797 0 47 10.5208 47 23.5C47 36.4792 36.4797 47 23.5011 47C10.5227 47 0.00233058 36.4792 0.00233058 23.5H0Z" fill="white"/>
  </g>
</svg>